<svg width="137" height="50" viewBox="0 0 137 50" fill="none" xmlns="http://www.w3.org/2000/svg">
<path d="M16.3912 42.368H13.7354V7.92079H16.8477C18.7842 7.92079 20.2781 9.10341 21.3293 11.4686C22.3806 13.8339 22.9062 17.1892 22.9062 21.5347V25.7013C22.9062 31.6419 22.3391 35.9048 21.2048 38.4901C20.0983 41.0754 18.4937 42.368 16.3912 42.368ZM17.6776 49.4224C20.7207 49.4224 23.4318 48.8999 25.811 47.8548C28.1901 46.8097 30.099 45.4483 31.5375 43.7706C32.9761 42.093 34.1656 40.099 35.1062 37.7888C36.0468 35.451 36.6831 33.1271 37.0151 30.8168C37.3747 28.5066 37.5545 26.0726 37.5545 23.5148C37.5545 15.9791 36.0192 10.2448 32.9484 6.31188C29.9053 2.37899 24.8565 0.412541 17.8021 0.412541C16.5572 0.412541 14.842 0.467546 12.6565 0.577556C10.471 0.687567 8.4515 0.756324 6.59798 0.783827H0V49.1337H6.59798C8.81114 49.1337 10.9551 49.1749 13.03 49.2574C15.1325 49.3674 16.6817 49.4224 17.6776 49.4224Z" fill="white"/>
<path d="M55.5236 30.4455V20.0908C55.5236 15.1128 55.8694 11.6887 56.561 9.81848C57.2803 7.92079 58.5252 6.97195 60.2957 6.97195C62.0663 6.97195 63.3388 7.93454 64.1134 9.85973C64.888 11.7849 65.2753 14.714 65.2753 18.6469V28.5891C65.2753 32.632 65.0955 35.6711 64.7359 37.7063C64.4039 39.714 63.9059 41.0479 63.242 41.7079C62.578 42.3405 61.596 42.6568 60.2957 42.6568C58.5252 42.6568 57.2803 41.7629 56.561 39.9752C55.8694 38.1876 55.5236 35.011 55.5236 30.4455ZM59.4243 50C62.7994 50 65.718 49.6287 68.1801 48.8861C70.6699 48.1161 72.7033 47.071 74.2801 45.7508C75.857 44.4032 77.1157 42.6705 78.0563 40.5528C78.9969 38.4076 79.647 36.1111 80.0067 33.6634C80.3663 31.2156 80.5461 28.3416 80.5461 25.0413C80.5461 22.8135 80.477 20.8196 80.3387 19.0594C80.2003 17.2992 79.9513 15.5253 79.5917 13.7376C79.2321 11.9499 78.7479 10.396 78.1393 9.07591C77.5584 7.72827 76.7699 6.46314 75.774 5.28053C74.8058 4.09791 73.6577 3.13531 72.3298 2.39274C71.0019 1.65016 69.4112 1.07261 67.5577 0.660066C65.7041 0.220022 63.6155 0 61.2916 0C57.9166 0 54.9841 0.385038 52.4943 1.15511C50.0322 1.92519 48.0127 2.98405 46.4358 4.33168C44.8866 5.67932 43.6417 7.43949 42.7011 9.61221C41.7605 11.7574 41.1104 14.0539 40.7508 16.5016C40.4188 18.9494 40.2528 21.8234 40.2528 25.1238C40.2528 27.3515 40.322 29.3592 40.4603 31.1469C40.5986 32.907 40.8476 34.681 41.2072 36.4686C41.5669 38.2288 42.0372 39.769 42.6181 41.0891C43.2267 42.4092 44.0152 43.6469 44.9834 44.802C45.9794 45.9571 47.1413 46.9059 48.4692 47.6485C49.7971 48.3911 51.3739 48.9686 53.1998 49.3812C55.0533 49.7937 57.1281 50 59.4243 50Z" fill="white"/>
<path d="M84.9821 49.1337H99.1325V0.783827H84.9821V49.1337Z" fill="white"/>
<path d="M112.514 49.1337H126.54V11.7162H136.25V0.783827H102.804V11.7162H112.514V49.1337Z" fill="white"/>
</svg>
