<svg width="290" height="492" viewBox="0 0 290 492" fill="none" xmlns="http://www.w3.org/2000/svg">
<g clip-path="url(#clip0)">
<path d="M192.392 245.896L8.33591 429.96C3.26791 435.016 0.479919 441.776 0.479919 448.984C0.479919 456.196 3.26791 462.952 8.33591 468.016L24.4639 484.136C29.5239 489.208 36.2879 492 43.4959 492C50.7039 492 57.4599 489.208 62.5239 484.136L281.672 264.992C286.756 259.912 289.54 253.124 289.52 245.908C289.54 238.66 286.76 231.88 281.672 226.796L62.7279 7.86401C57.6639 2.79202 50.9079 0 43.6959 0C36.4879 0 29.7319 2.79202 24.6639 7.86401L8.53992 23.984C-1.95209 34.476 -1.95209 51.556 8.53992 62.044L192.392 245.896Z" fill="#F4F4F4"/>
</g>
<defs>
<clipPath id="clip0">
<rect width="290" height="492" fill="white"/>
</clipPath>
</defs>
</svg>
