<svg xmlns="http://www.w3.org/2000/svg" viewBox="0 0 100 100"><defs><style>.cls-1{fill:#dfe6e9;}.cls-2,.cls-3{fill:#00ccbe;}.cls-3{stroke:#fff;}.cls-3,.cls-6{stroke-miterlimit:10;}.cls-4{fill:#ffb2a8;}.cls-5{fill:#000061;}.cls-6{fill:none;stroke:#000061;}.cls-7{fill:#ff8080;}</style></defs><g id="Layer_2" data-name="Layer 2"><g id="OBJECTS"><rect class="cls-1" width="100" height="100" rx="50"/><path class="cls-2" d="M45.61,65.11S36,62.94,30.22,69.81s-6.14,9.72-6.14,9.72,19.07,1,29.44-2.08,27,.78,27,.78-5.83-14.4-20.36-14.14S45.61,65.11,45.61,65.11Z"/><path class="cls-3" d="M41.46,64.8S40.51,71,49.91,71s10.23-6.92,10.23-6.92"/><path class="cls-4" d="M54.48,37.49S52.61,24.64,42.09,24.17,27.61,40.76,32.28,50.81,44.9,58.05,44.9,58.05l-1.7,9.36h0a12.41,12.41,0,0,0,12.28-1l.58-.4Z"/><path class="cls-5" d="M50.78,53.72s1.49,7.8-7.43,12.26l1.55-7.93A22.24,22.24,0,0,0,50.78,53.72Z"/><path class="cls-4" d="M51,35s3.33-2.84,6.26-1.3,1.5,8.7,0,10.16S49.94,42.16,51,35Z"/><path class="cls-5" d="M51.83,30.31a7.51,7.51,0,0,0-8.63,0c-4.54,3.1-13.38.95-14.82-6.1s4.53-9.15,7.41-5.28,4.53-5.82,9.5-1.92,9.6.89,11.17,7.2C57.21,27.16,56.85,29.65,51.83,30.31Z"/><path class="cls-6" d="M32.78,29.49s-6.08-3.64-4.41-10.11A4.44,4.44,0,0,1,32.63,16c1.7,0,3.65,1,4.91,4.73"/><path class="cls-6" d="M51.66,30s5.63-.07,5.67-5.1a5.63,5.63,0,0,0-8.74-5.06"/><polyline class="cls-6" points="36.85 35.14 36.34 44.68 40.08 45.63"/><ellipse class="cls-5" cx="33.15" cy="39.55" rx="1.01" ry="2.08"/><ellipse class="cls-5" cx="41.45" cy="39.55" rx="1.01" ry="2.08"/><path class="cls-6" d="M38.21,51.29s5,.73,7.09-3.53"/><path class="cls-7" d="M54.37,36.52a1.63,1.63,0,0,1,2.55-.9c2,1.08.2,5.92-.86,6s-1-.94-.83-1.8,0-1.72-1-1.36"/><ellipse class="cls-6" cx="41.46" cy="39.93" rx="3.25" ry="4.29"/><ellipse class="cls-6" cx="32.15" cy="39.62" rx="3.25" ry="4.29"/><line class="cls-6" x1="34.45" y1="36.6" x2="39.42" y2="36.6"/><line class="cls-6" x1="53.42" y1="33.63" x2="44.25" y2="37.73"/></g></g></svg>