<svg xmlns="http://www.w3.org/2000/svg" viewBox="0 0 100 100"><defs><style>.cls-1{fill:#dfe6e9;}.cls-2{fill:#000061;}.cls-3{fill:#ffb149;}.cls-4{fill:#ffb2a8;}.cls-5{fill:none;stroke:#000061;stroke-miterlimit:10;}.cls-6{fill:#ff8080;}.cls-7{fill:#ff7278;}.cls-8{fill:#fff;}</style></defs><g id="Layer_2" data-name="Layer 2"><g id="OBJECTS"><rect class="cls-1" width="100" height="100" rx="50"/><circle class="cls-2" cx="36.66" cy="35.54" r="10.14" transform="translate(-14.39 36.33) rotate(-45)"/><circle class="cls-2" cx="36.66" cy="48.53" r="10.14"/><circle class="cls-2" cx="43.3" cy="59.66" r="10.14" transform="translate(-22.57 92.75) rotate(-80.7)"/><circle class="cls-2" cx="54.89" cy="33.49" r="8.09" transform="translate(10.42 79.93) rotate(-77.63)"/><circle class="cls-2" cx="54.89" cy="44.28" r="11.11" transform="translate(-15.61 46.18) rotate(-40.44)"/><circle class="cls-2" cx="57.92" cy="57.77" r="11.11" transform="translate(-23.88 57.87) rotate(-45)"/><path class="cls-3" d="M46.23,63s-9.64-2.17-15.39,4.69-6.14,9.72-6.14,9.72,19.07,1,29.45-2.07,27,.78,27,.78S75.29,61.75,60.76,62,46.23,63,46.23,63Z"/><path class="cls-4" d="M55.1,35.41S53.23,22.55,42.72,22.09,28.23,38.68,32.9,48.73,45.52,56,45.52,56l-1.7,9.36h0a12.42,12.42,0,0,0,12.28-1l.58-.4Z"/><path class="cls-2" d="M51.4,51.64S52.89,59.43,44,63.89L45.52,56A22.24,22.24,0,0,0,51.4,51.64Z"/><path class="cls-4" d="M51.62,32.93s3.33-2.84,6.26-1.3,1.5,8.69,0,10.16S50.57,40.08,51.62,32.93Z"/><polyline class="cls-5" points="37.41 33.05 36.9 42.59 40.65 43.55"/><ellipse class="cls-2" cx="33.71" cy="37.47" rx="1.01" ry="2.08"/><ellipse class="cls-2" cx="40.64" cy="37.47" rx="1.01" ry="2.08"/><path class="cls-2" d="M48,26.89s.61,2.18,3.81,1.93c0,0,2.17.85,2.17,2.49,0,0,.83-10.82-6.48-8.93,0,0-2.46-6-8.94-4.84s-6.65,7.22-5.09,10.75c0,0,3.86-2.63,6.81.57A4.4,4.4,0,0,0,48,26.89Z"/><path class="cls-6" d="M55,34.7a1.62,1.62,0,0,1,2.55-.89c2,1.08.2,5.91-.86,6s-1-.94-.83-1.81,0-1.72-1-1.36"/><path class="cls-2" d="M40.25,28.86s2.88,5.74,8.37,7.79,8.86-.28,9.85-5.34-9.11-5.37-9.11-5.37l-3.29-.54Z"/><path class="cls-7" d="M40.89,49.16l.79-2.32,1.18.2.44-1.35,2.07.81s.39,2.56-1.1,3.34S40.89,49.16,40.89,49.16Z"/><path class="cls-5" d="M38.77,49.2s5,.74,7.09-3.52"/><ellipse class="cls-6" cx="45.31" cy="42.93" rx="2.16" ry="1.35"/><ellipse class="cls-6" cx="34.5" cy="43.88" rx="2.16" ry="1.35"/><path class="cls-8" d="M59.46,43a2.29,2.29,0,1,1-2.28-2.29A2.28,2.28,0,0,1,59.46,43Z"/><path class="cls-5" d="M31.87,34.68A2.65,2.65,0,0,1,35,33.77"/><path class="cls-5" d="M42.79,34.68a2.65,2.65,0,0,0-3.14-.91"/></g></g></svg>