<svg xmlns="http://www.w3.org/2000/svg" viewBox="0 0 100 100"><defs><style>.cls-1{fill:#dfe6e9;}.cls-2{fill:#000061;}.cls-3{fill:#ffb2a8;}.cls-4{fill:#ff8080;}.cls-5{fill:none;stroke:#000061;stroke-miterlimit:10;}.cls-6{fill:#8e3939;}.cls-7{fill:#ef6060;}.cls-8{fill:#00ccbe;}</style></defs><g id="Layer_2" data-name="Layer 2"><g id="OBJECTS"><rect class="cls-1" width="100" height="100" rx="50"/><circle class="cls-2" cx="49.44" cy="32.71" r="12.55" transform="translate(-6.32 52.85) rotate(-53.34)"/><circle class="cls-2" cx="57.86" cy="50.18" r="12.55" transform="translate(-14.58 25.31) rotate(-21.99)"/><path class="cls-2" d="M44.52,64s-9.65-2.17-15.39,4.69S23,78.42,23,78.42s19.07,1,29.44-2.07,27,.78,27,.78S73.57,62.73,59.05,63,44.52,64,44.52,64Z"/><path class="cls-3" d="M53.39,36.39S51.52,23.54,41,23.07,26.52,39.66,31.19,49.71,43.81,57,43.81,57l-1.7,9.36h0a12.42,12.42,0,0,0,12.28-1l.58-.39Z"/><path class="cls-2" d="M49.69,52.62s1.48,7.79-7.44,12.26L43.81,57A22.41,22.41,0,0,0,49.69,52.62Z"/><path class="cls-3" d="M49.91,33.91s3.33-2.84,6.25-1.3,1.5,8.69,0,10.16S48.85,41.06,49.91,33.91Z"/><path class="cls-2" d="M28.25,35.06A27.2,27.2,0,0,0,46,31s1,7.26,6.32,7.59c0,0-.09-5.68,3.82-6,0,0-.62-16.93-13.45-15C42.71,17.58,27.66,15.77,28.25,35.06Z"/><ellipse class="cls-2" cx="31.66" cy="36.73" rx="1.05" ry="1.86"/><ellipse class="cls-2" cx="38.9" cy="36.73" rx="1.05" ry="1.86"/><path class="cls-4" d="M53.32,35.69a1.62,1.62,0,0,1,2.55-.9c2,1.08.2,5.91-.87,6s-1-.94-.82-1.8,0-1.73-1-1.37"/><polyline class="cls-5" points="34.82 37.63 33.87 45.26 38.3 44.76"/><path class="cls-6" d="M34.35,46.82a5.35,5.35,0,0,0,5.82-.89c2.6-2.48,3.44,0,3.17,1.79s-1,5.19-5.81,4.69S32,47.36,34.35,46.82Z"/><path class="cls-7" d="M35.12,51.69a4.23,4.23,0,0,1,3.46-2.44c2.83-.51,4.06.93,4.06.93a3.86,3.86,0,0,1-3.5,2.25A8.26,8.26,0,0,1,35.12,51.69Z"/><path class="cls-8" d="M38.9,17.81s12,1.74,14,17.68c0,0,4.91-8.21-1.22-15.13C51.64,20.36,48.45,15.27,38.9,17.81Z"/><circle class="cls-8" cx="55.69" cy="43.56" r="1.56"/></g></g></svg>