<svg xmlns="http://www.w3.org/2000/svg" viewBox="0 0 100 100"><defs><style>.cls-1{fill:#dfe6e9;}.cls-2{fill:#000061;}.cls-3{fill:#ffb2a8;}.cls-4{fill:none;stroke:#000061;stroke-miterlimit:10;}.cls-5{fill:#ff8080;}.cls-6{fill:#fff;}.cls-7{fill:#ff7171;}.cls-8{fill:#7acfea;}</style></defs><g id="Layer_2" data-name="Layer 2"><g id="OBJECTS"><rect class="cls-1" width="100" height="100" rx="50"/><path class="cls-2" d="M46.16,61.16s-9.65-2.17-15.4,4.7-6.13,9.71-6.13,9.71,19.06,1,29.44-2.07,27,.78,27,.78-5.84-14.4-20.37-14.14S46.16,61.16,46.16,61.16Z"/><path class="cls-3" d="M55,33.54S53.15,20.69,42.64,20.22,28.15,36.81,32.82,46.86,45.44,54.1,45.44,54.1l-1.7,9.36h0a12.41,12.41,0,0,0,12.28-1l.58-.4Z"/><path class="cls-2" d="M51.32,49.77S52.81,57.56,43.89,62l1.55-7.93A22.24,22.24,0,0,0,51.32,49.77Z"/><path class="cls-3" d="M51.54,31.06s3.34-2.84,6.26-1.3,1.5,8.69,0,10.16S50.49,38.21,51.54,31.06Z"/><polyline class="cls-4" points="38.53 31.81 37.75 38.07 41.5 39.02"/><ellipse class="cls-2" cx="34.77" cy="32.65" rx="1.01" ry="2.08"/><ellipse class="cls-2" cx="43.07" cy="32.65" rx="1.01" ry="2.08"/><path class="cls-5" d="M55,32.57a1.62,1.62,0,0,1,2.55-.9c2,1.08.2,5.91-.86,6s-1-.94-.83-1.8,0-1.72-1-1.36"/><path class="cls-6" d="M35,44.74s.55,3.33,4.9,3.19,4.16-4.4,4.16-4.4L41.56,43l-2.87.35Z"/><path class="cls-2" d="M37.55,39.77s-2.93-.58-4.08,1.82c0,0-2-1-3.07-.48S29.1,39,29.1,39s-2.74,5.14,1.68,6.58,8.5-2.11,8.5-2.11S40.77,40.15,37.55,39.77Z"/><path class="cls-2" d="M41,39.77s2.93-.58,4.09,1.82c0,0,2-1,3.07-.48S49.45,39,49.45,39s2.73,5.14-1.69,6.58-8.49-2.11-8.49-2.11S37.78,40.15,41,39.77Z"/><circle class="cls-7" cx="49.16" cy="28.53" r="0.53"/><path class="cls-7" d="M51.75,29.3a.44.44,0,0,1-.43.44.44.44,0,0,1-.44-.44.44.44,0,0,1,.44-.43A.43.43,0,0,1,51.75,29.3Z"/><path class="cls-7" d="M52.29,27.27a.44.44,0,0,1-.44.43.43.43,0,0,1-.43-.43.44.44,0,0,1,.43-.44A.44.44,0,0,1,52.29,27.27Z"/><path class="cls-8" d="M38.62,61.25s2.87,5.26,11.66,5.26,9.56-6.38,9.8-6.37a27,27,0,0,1,6.47.75S63.67,69,67.77,72.41c0,0-9.11-.61-16,1.68s-19.83,1.65-19.83,1.65,5.62-3.8,2-12.64A15.56,15.56,0,0,1,38.62,61.25Z"/><circle class="cls-2" cx="33.81" cy="33.54" r="3.94"/><circle class="cls-2" cx="43.07" cy="33.54" r="3.94"/><line class="cls-4" x1="53.81" y1="29.74" x2="46.61" y2="31.81"/><line class="cls-4" x1="35.57" y1="30.39" x2="41.5" y2="30.28"/></g></g></svg>