<svg xmlns="http://www.w3.org/2000/svg" viewBox="0 0 100 100"><defs><style>.cls-1{isolation:isolate;}.cls-2{fill:#dfe6e9;}.cls-3{fill:#000061;}.cls-4{fill:#ff5776;}.cls-5{fill:#ce8463;}.cls-6,.cls-7,.cls-9{fill:none;stroke-miterlimit:10;}.cls-6,.cls-7{stroke:#000061;}.cls-7{stroke-width:2px;}.cls-8{fill:#fff;}.cls-9{stroke:#fff;}.cls-10{fill:#ff8080;opacity:0.53;mix-blend-mode:multiply;}</style></defs><g class="cls-1"><g id="Layer_2" data-name="Layer 2"><g id="OBJECTS"><rect class="cls-2" width="100" height="100" rx="50"/><circle class="cls-3" cx="30.14" cy="25.04" r="4.4" transform="translate(-8.88 28.64) rotate(-45)"/><circle class="cls-3" cx="37.17" cy="20.64" r="4.4" transform="translate(10.82 54.01) rotate(-80.75)"/><circle class="cls-3" cx="45.96" cy="21.57" r="4.4"/><circle class="cls-3" cx="54.21" cy="25.04" r="4.4" transform="translate(-5.46 22.83) rotate(-22.67)"/><circle class="cls-3" cx="57.68" cy="30.36" r="4.4" transform="translate(-7.23 24.38) rotate(-22.5)"/><circle class="cls-3" cx="56.34" cy="40.13" r="4.4" transform="translate(7.67 89.28) rotate(-80.75)"/><circle class="cls-3" cx="54.56" cy="46.67" r="4.4" transform="translate(-3.44 88.98) rotate(-76.65)"/><circle class="cls-3" cx="30.14" cy="37.05" r="4.4" transform="translate(-17.37 32.16) rotate(-45)"/><circle class="cls-3" cx="30.14" cy="30.36" r="4.4" transform="translate(-12.64 30.2) rotate(-45)"/><circle class="cls-3" cx="38.45" cy="23.39" r="4.4"/><circle class="cls-3" cx="34.06" cy="24.47" r="4.4" transform="translate(2.39 51.95) rotate(-76.65)"/><circle class="cls-3" cx="45.96" cy="25.04" r="4.4" transform="translate(11.08 64.06) rotate(-76.78)"/><circle class="cls-3" cx="51.94" cy="30.36" r="4.4" transform="translate(10.51 73.99) rotate(-76.78)"/><circle class="cls-3" cx="54.56" cy="33.56" r="4.4"/><circle class="cls-3" cx="48.88" cy="25.04" r="4.4" transform="translate(-3.65 41.05) rotate(-44.07)"/><circle class="cls-3" cx="42.76" cy="22.31" r="4.4"/><path class="cls-4" d="M45.26,65.41s-9.65-2.16-15.39,4.7-6.14,9.72-6.14,9.72,19.07,1,29.44-2.08,27,.78,27,.78S74.32,64.14,59.79,64.39,45.26,65.41,45.26,65.41Z"/><path class="cls-5" d="M54.13,37.79S52.26,24.94,41.74,24.47s-14.48,16.6-9.81,26.64,12.62,7.25,12.62,7.25l-1.7,9.36h0a12.42,12.42,0,0,0,12.28-1l.58-.4Z"/><path class="cls-3" d="M50.43,54s1.49,7.8-7.44,12.26l1.56-7.92A22.29,22.29,0,0,0,50.43,54Z"/><path class="cls-5" d="M50.65,35.32S54,32.47,56.9,34s1.5,8.69,0,10.15S49.59,42.47,50.65,35.32Z"/><circle class="cls-3" cx="37.63" cy="26.71" r="4.4" transform="translate(-7.87 34.43) rotate(-45)"/><circle class="cls-3" cx="44.49" cy="25.04" r="4.4" transform="translate(-6.21 19.08) rotate(-22.67)"/><circle class="cls-3" cx="47.11" cy="27.54" r="3.56"/><circle class="cls-3" cx="53.28" cy="28.86" r="3.56"/><circle class="cls-3" cx="50.52" cy="33.93" r="3.56"/><circle class="cls-3" cx="48.88" cy="30.36" r="3.56"/><circle class="cls-3" cx="32.23" cy="29.43" r="3.56"/><polyline class="cls-6" points="35.79 35.73 34.53 44.52 39.48 43.76 39.48 42.27"/><path class="cls-7" d="M38.51,38.88s1.44-4,5.79-1.18"/><path class="cls-7" d="M29.71,39.8s1.22-3.35,4.88-1"/><path class="cls-8" d="M35.79,47.68a6.72,6.72,0,0,0,7.06-2.19c2.76-3.55,4.26-.68,4.26,1.64s-.27,6.62-6.35,6.89S33,48.77,35.79,47.68Z"/><path class="cls-9" d="M37.71,65.51s1.13,6.68,10.43,6.68a11.84,11.84,0,0,0,11.65-7.8"/><path class="cls-9" d="M33,68.29s.12,7.79,14.9,7.79S66.44,65.39,66.44,65.39"/><path class="cls-10" d="M54.06,36.93A1.62,1.62,0,0,1,56.61,36c2,1.08.2,5.91-.87,6s-1-.94-.82-1.81,0-1.72-1-1.36"/></g></g></g></svg>